<svg width="43" height="42" viewBox="0 0 43 42" fill="none" xmlns="http://www.w3.org/2000/svg">
<path id="Star 3" d="M19.5979 1.8541C20.1966 0.0114789 22.8035 0.0114794 23.4022 1.8541L27.0455 13.0673C27.3133 13.8913 28.0812 14.4492 28.9477 14.4492H40.7379C42.6753 14.4492 43.4809 16.9285 41.9135 18.0673L32.375 24.9974C31.674 25.5067 31.3807 26.4094 31.6484 27.2335L35.2918 38.4467C35.8905 40.2893 33.7815 41.8215 32.2141 40.6827L22.6756 33.7526C21.9746 33.2433 21.0255 33.2433 20.3245 33.7526L10.786 40.6827C9.21855 41.8215 7.10959 40.2893 7.7083 38.4467L11.3517 27.2335C11.6194 26.4094 11.3261 25.5067 10.6251 24.9974L1.08663 18.0673C-0.480793 16.9285 0.32476 14.4492 2.26221 14.4492H14.0524C14.9189 14.4492 15.6868 13.8913 15.9546 13.0673L19.5979 1.8541Z" fill="#EEC965"/>
</svg>
