<svg width="29" height="26" viewBox="0 0 29 26" fill="none" xmlns="http://www.w3.org/2000/svg">
<path id="Vector" d="M29 3.08407C27.9335 3.60524 26.7879 3.95738 25.5835 4.11655C26.8262 3.29648 27.7559 2.00577 28.1992 0.485276C27.0316 1.25011 25.7538 1.78847 24.4213 2.07695C23.5251 1.02175 22.3382 0.322342 21.0448 0.0873202C19.7513 -0.147702 18.4237 0.0948102 17.268 0.777205C16.1123 1.4596 15.1932 2.5437 14.6535 3.86118C14.1137 5.17867 13.9834 6.65584 14.2829 8.06335C11.9171 7.93234 9.60276 7.2542 7.49002 6.07291C5.37727 4.89163 3.51336 3.23361 2.01925 1.20646C1.50837 2.17837 1.21461 3.30522 1.21461 4.50532C1.21404 5.58568 1.45528 6.64949 1.91692 7.60237C2.37855 8.55525 3.04632 9.36773 3.86096 9.96772C2.91619 9.93457 1.99226 9.65303 1.16608 9.14653V9.23104C1.16598 10.7463 1.64124 12.2149 2.5112 13.3877C3.38116 14.5605 4.59225 15.3652 5.93896 15.6654C5.06253 15.927 4.14365 15.9655 3.25174 15.778C3.6317 17.0818 4.37183 18.2219 5.36852 19.0388C6.36521 19.8556 7.56855 20.3082 8.81009 20.3333C6.70251 22.158 4.09965 23.1478 1.42024 23.1434C0.945611 23.1436 0.471383 23.113 0 23.0519C2.71976 24.9804 5.88575 26.004 9.11917 26C20.0647 26 26.0484 16.002 26.0484 7.33089C26.0484 7.04918 26.042 6.76465 26.0305 6.48294C27.1944 5.55466 28.1991 4.40516 28.9974 3.0883L29 3.08407Z" fill="white"/>
</svg>
